<svg width="196" height="45" viewBox="0 0 196 45" fill="none" xmlns="http://www.w3.org/2000/svg">
<path d="M0 27.9192C0 27.9192 2.08255 16.8065 13.2734 14.1313C24.4642 11.456 27.5766 8.11761 31.2382 0.754883C31.2382 0.754883 33.3437 9.48955 25.9975 24.0321C18.6514 38.5746 3.18104 44.9998 3.18104 44.9998C3.04372 45.0913 11.5112 35.442 13.548 30.5945C13.548 30.5945 15.7679 25.9528 13.9371 23.2547C12.1062 20.5565 7.71229 22.4772 7.71229 22.4772C7.71229 22.4772 3.73028 23.712 0 27.9421L0 27.9192Z" fill="black"/>
<path d="M15.6532 10.1981C18.4717 10.1981 20.7566 7.91516 20.7566 5.09904C20.7566 2.28292 18.4717 0 15.6532 0C12.8347 0 10.5498 2.28292 10.5498 5.09904C10.5498 7.91516 12.8347 10.1981 15.6532 10.1981Z" fill="black"/>
<path d="M49.2024 9.75391V34.5H44.0754V9.75391H49.2024ZM57.3284 23.7676V34.5H52.2698V15.9404H57.0891V19.1875H57.2942C58.1487 17.0342 60.1311 15.7012 62.8655 15.7012C66.7278 15.7012 69.2913 18.333 69.2571 22.6738V34.5H64.2327V23.5625C64.2327 21.2725 62.968 19.9053 60.8831 19.9053C58.7639 19.9053 57.3284 21.3066 57.3284 23.7676ZM82.7834 21.4434C82.5784 20.1445 81.4163 19.29 79.7415 19.29C78.1008 19.29 76.8362 20.0762 76.8704 21.2041C76.8362 22.0244 77.5198 22.6738 79.2629 23.0498L82.5784 23.7334C86.1672 24.4854 87.9104 26.0918 87.9446 28.7578C87.9104 32.415 84.6292 34.876 79.7073 34.876C74.6829 34.876 71.7434 32.6201 71.3333 28.9971H76.426C76.6653 30.4668 77.8616 31.2188 79.7073 31.2188C81.553 31.2188 82.7834 30.4668 82.7834 29.2705C82.7834 28.3135 81.9973 27.7324 80.2542 27.3564L77.178 26.7412C73.6575 26.0576 71.8118 24.2119 71.8459 21.4775C71.8118 17.9229 74.8879 15.7012 79.6731 15.7012C84.3557 15.7012 87.261 17.9229 87.5344 21.4434H82.7834ZM99.8303 15.9404V19.7344H96.344V28.792C96.344 30.2617 97.0618 30.6377 98.0872 30.6719C98.5999 30.6719 99.4885 30.6377 100.104 30.5693V34.5684C99.5569 34.6709 98.6682 34.7393 97.4036 34.7393C93.7463 34.7393 91.2512 33.0986 91.2854 29.5098V19.7344H88.7219V15.9404H91.2854V11.4971H96.344V15.9404H99.8303ZM102.009 34.5V15.9404H106.897V19.1533H107.102C107.785 16.8633 109.494 15.667 111.579 15.667C112.092 15.667 112.741 15.7354 113.186 15.8379V20.3496C112.707 20.2129 111.75 20.0762 111.032 20.0762C108.742 20.0762 107.068 21.6826 107.068 23.9385V34.5H102.009ZM126.541 26.6045V15.9404H131.6V34.5H126.746V31.1504H126.541C125.687 33.3037 123.704 34.7393 120.902 34.7393C117.176 34.7393 114.647 32.1074 114.647 27.7666V15.9404H119.705V26.8779C119.705 29.0654 120.97 30.4668 122.952 30.4668C124.798 30.4668 126.541 29.1338 126.541 26.6045ZM134.531 34.5V15.9404H139.35V19.1875H139.555C140.341 17.0342 142.221 15.7012 144.716 15.7012C147.28 15.7012 149.159 17.0342 149.775 19.1875H149.946C150.732 17.0684 152.817 15.7012 155.551 15.7012C159.003 15.7012 161.396 17.9912 161.396 22.0244V34.5H156.337V23.0156C156.337 20.8965 155.107 19.8711 153.432 19.8711C151.518 19.8711 150.424 21.2041 150.424 23.1523V34.5H145.502V22.8789C145.502 21.0332 144.34 19.8711 142.631 19.8711C140.922 19.8711 139.589 21.2383 139.589 23.3574V34.5H134.531ZM172.7 34.876C167.027 34.876 163.54 31.1846 163.54 25.3057C163.54 19.5635 167.061 15.7012 172.495 15.7012C177.383 15.7012 181.211 18.7773 181.211 25.1006V26.5361H168.531C168.531 29.3389 170.205 31.082 172.803 31.082C174.512 31.082 175.742 30.3301 176.255 29.2021H181.074C180.357 32.6201 177.281 34.876 172.7 34.876ZM168.531 23.3574H176.426C176.426 21.1016 174.854 19.4951 172.598 19.4951C170.274 19.4951 168.616 21.2212 168.531 23.3574ZM183.39 34.5V15.9404H188.278V19.1533H188.483C189.166 16.8633 190.875 15.667 192.96 15.667C193.473 15.667 194.122 15.7354 194.567 15.8379V20.3496C194.088 20.2129 193.131 20.0762 192.413 20.0762C190.123 20.0762 188.448 21.6826 188.448 23.9385V34.5H183.39Z" fill="black"/>
</svg>
